<svg class='logo__svg' width="914" height="232" fill="none"><rect class='logo__svg__rect' x="1" y="1" width="912" height="230" rx="7" stroke="url(#prefix__paint0_linear)" stroke-width="2"/><g filter="url(#prefix__filter0_d)"><path d="M256.819 219h-1.804l-3.169-10.517a32.952 32.952 0 01-.505-1.761c-.186-.709-.283-1.135-.29-1.279a24.46 24.46 0 01-.752 3.105L247.227 219h-1.805l-4.179-15.705h1.934l2.481 9.7c.344 1.361.595 2.593.752 3.695.194-1.31.48-2.592.86-3.845l2.814-9.55h1.934l2.954 9.636a29.54 29.54 0 01.87 3.759c.136-1.016.394-2.255.773-3.716l2.471-9.679h1.934L256.819 219zm26.415 0h-8.755v-15.705h8.755v1.622h-6.928v5.06h6.509v1.611h-6.509v5.779h6.928V219zm38.157 0l-5.329-13.922h-.085c.1 1.103.15 2.414.15 3.932V219h-1.687v-15.705h2.75l4.974 12.955h.086l5.017-12.955h2.728V219h-1.826v-10.119c0-1.16.05-2.421.15-3.781h-.086l-5.371 13.9h-1.471zm33.795 0l-1.956-4.995h-6.294L345.002 219h-1.848l6.209-15.77h1.536l6.177 15.77h-1.89zm-2.525-6.639l-1.826-4.866a26.295 26.295 0 01-.731-2.266 20.341 20.341 0 01-.676 2.266l-1.848 4.866h5.081zM381.579 219h-2.148l-5.726-7.616-1.643 1.461V219h-1.827v-15.705h1.827v7.788l7.122-7.788h2.159l-6.317 6.821 6.553 8.884zm21.925 0h-8.755v-15.705h8.755v1.622h-6.929v5.06h6.51v1.611h-6.51v5.779h6.929V219zm36.04 0h-1.826v-14.083h-4.974v-1.622h11.774v1.622h-4.974V219zm27.102 0h-8.754v-15.705h8.754v1.622h-6.928v5.06h6.51v1.611h-6.51v5.779h6.928V219zm21.216-14.298c-1.726 0-3.09.577-4.092 1.73-.996 1.145-1.494 2.717-1.494 4.715 0 2.056.48 3.646 1.44 4.77.967 1.117 2.342 1.676 4.125 1.676 1.096 0 2.345-.197 3.749-.591v1.601c-1.089.408-2.431.612-4.028.612-2.314 0-4.1-.702-5.361-2.106-1.253-1.403-1.88-3.398-1.88-5.983 0-1.619.301-3.036.903-4.254.608-1.217 1.482-2.156 2.621-2.814 1.146-.659 2.492-.989 4.039-.989 1.647 0 3.086.301 4.318.903l-.773 1.568c-1.189-.559-2.378-.838-3.567-.838zM517.94 219h-1.826v-7.391h-8.271V219h-1.826v-15.705h1.826v6.682h8.271v-6.682h1.826V219zm40.789 0h-8.755v-15.705h8.755v1.622H551.8v5.06h6.51v1.611h-6.51v5.779h6.929V219zm24.363 0l-1.955-4.995h-6.295L572.908 219h-1.847l6.209-15.77h1.536l6.176 15.77h-1.89zm-2.525-6.639l-1.826-4.866a25.982 25.982 0 01-.73-2.266 20.361 20.361 0 01-.677 2.266l-1.848 4.866h5.081zm26.437 2.46c0 1.382-.501 2.46-1.504 3.234-1.003.773-2.363 1.16-4.082 1.16-1.862 0-3.294-.24-4.297-.72v-1.762c.645.273 1.346.487 2.106.645.759.157 1.511.236 2.255.236 1.218 0 2.135-.229 2.75-.687.616-.466.924-1.11.924-1.934 0-.544-.111-.988-.333-1.332-.215-.351-.58-.673-1.095-.967-.509-.293-1.286-.626-2.332-.999-1.46-.522-2.506-1.142-3.136-1.858-.623-.716-.935-1.651-.935-2.804 0-1.21.455-2.173 1.364-2.889.91-.717 2.113-1.075 3.61-1.075 1.561 0 2.997.287 4.307.86l-.569 1.59c-1.296-.545-2.557-.817-3.781-.817-.967 0-1.722.208-2.267.623-.544.416-.816.992-.816 1.73 0 .544.1.992.301 1.342.2.344.537.663 1.009.957.48.286 1.211.605 2.192.956 1.647.587 2.778 1.217 3.394 1.89.623.673.935 1.547.935 2.621zM621.216 219v-15.705h1.826V219h-1.826zm25.899 0h-8.755v-15.705h8.755v1.622h-6.928v5.06h6.509v1.611h-6.509v5.779h6.928V219zm16.318-6.531V219h-1.827v-15.705h4.308c1.926 0 3.348.369 4.265 1.106.924.738 1.385 1.848 1.385 3.33 0 2.077-1.052 3.481-3.158 4.211l4.265 7.058h-2.159l-3.803-6.531h-3.276zm0-1.569h2.503c1.289 0 2.234-.254 2.835-.762.602-.516.903-1.286.903-2.31 0-1.038-.308-1.787-.924-2.245-.609-.458-1.59-.687-2.943-.687h-2.374v6.004z" fill="url(#prefix__paint1_linear)" fill-opacity=".8"/></g><path d="M47.633 119.413c-.712.163-1.324.69-1.324 1.42v51.151a4 4 0 004 4h7.843a4 4 0 004-4V123.15c0-2.304-1.942-4.129-4.244-4.025-3.397.152-6.666.229-9.86.233-.143 0-.276.024-.415.055z" fill="url(#prefix__paint2_linear)"/><path d="M188.436 118.289l-.463-.092c-.198-.04-.4-.06-.603-.06l-1.219-.153-5.027-.916c-1.537-.243-2.937.918-3.048 2.471-1.811 25.492-15.819 45.608-39.3 45.608-23.178-.144-37.104-20.735-38.95-44.897-.177-2.299-2.142-4.096-4.438-3.89-3.013.272-5.983.565-8.911.834-2.11.195-3.729 1.992-3.584 4.106 2.336 34.088 24.403 56.821 55.121 56.821 28.827 0 52.92-18.974 56.686-54.969.201-1.926-1.103-3.574-2.996-3.978a16.202 16.202 0 01-.526-.121l-2.742-.764z" fill="url(#prefix__paint3_linear)"/><path d="M295.121 142.525c-.443-.139-.784.275-.75.738.281 3.81.561 7.73.841 11.524a.2.2 0 01-.382.1c-1.833-3.926-3.779-7.743-5.837-11.743a4.041 4.041 0 00-2.938-2.13 270.862 270.862 0 01-8.536-1.564c-3.468-.687-6.118 3.093-4.242 6.089l17.875 28.567a4 4 0 003.391 1.878h9.932a4 4 0 004-4v-24.281a4.013 4.013 0 00-3.601-3.986c-3.274-.341-6.468-.705-9.581-1.149a1.31 1.31 0 01-.172-.043z" fill="url(#prefix__paint4_linear)"/><path d="M220.694 125.763c-2.473-.661-4.838 1.213-4.838 3.773v42.448a4 4 0 004 4h6.929a4 4 0 004-4v-40.499a4.028 4.028 0 00-3.025-3.894c-1.366-.353-2.725-.706-4.135-1.059-.953-.239-1.93-.502-2.931-.769z" fill="url(#prefix__paint5_linear)"/><path d="M340.065 144.836c-2.155.109-3.865 1.875-3.865 4.033v23.115a4 4 0 004 4h7.842a4 4 0 004-4V146.54c0-1.365-1.243-2.528-2.589-2.303-3.052.218-6.181.437-9.388.599z" fill="url(#prefix__paint6_linear)"/><path d="M471.423 125.495a4.376 4.376 0 00-3.861 3.722c-3.222 22.49-16.839 35.778-38.744 35.778-16.558 0-28.514-10.408-34.648-25.103-.8-1.919-2.85-3.04-4.878-2.582a88.634 88.634 0 01-4.041.822c-1.676.457-3.351.763-5.179 1.221-2.016.505-3.346 2.626-2.57 4.554 8.501 21.12 26.784 34.061 50.098 34.061 28.162 0 51.945-15.282 56.393-49.527.287-2.214-1.404-4.15-3.63-3.972-2.753.22-5.778.7-8.94 1.026z" fill="url(#prefix__paint7_linear)"/><path d="M62.152 59.71a4 4 0 00-4-4h-7.843a4 4 0 00-4 4v49.206c0 2.496 2.262 4.385 4.719 3.945 2.572-.46 5.207-.931 7.886-1.433a3.974 3.974 0 003.238-3.913V59.711z" fill="url(#prefix__paint8_linear)"/><path d="M139.08 66.7c18.776 0 30.772 12.879 35.988 29.233.357 1.12 1.377 2.056 2.553 2.056 2.285.153 4.417.306 6.702.611 2.133.305 4.418.61 6.551.916 1.354.15 2.462-1.064 2.14-2.388-6.345-26.127-25.769-43.402-53.172-43.402-27.696 0-49.308 18.15-55.414 47.177-.563 2.675 1.828 4.951 4.508 4.416 3.109-.621 6.29-1.271 9.592-1.928 1.586-.316 2.82-1.556 3.203-3.127C106.373 81.23 118.822 66.7 139.08 66.7z" fill="url(#prefix__paint9_linear)"/><path d="M187.519 121.219c-.018-.004-.017-.03.001-.03l.004.001c.033.008.502.127-.005.029z" fill="url(#prefix__paint10_linear)"/><path d="M305.943 124.016c1.275.45 2.532-.678 2.532-2.03V59.71a4 4 0 00-4-4h-6.929a4 4 0 00-4 4v47.59c0 3.91 0 7.636.072 11.249a3.906 3.906 0 003.111 3.751 177.05 177.05 0 008.752 1.598c.168.026.303.062.462.118z" fill="url(#prefix__paint11_linear)"/><path d="M229.566 75.4a.765.765 0 01.878.414c5.228 10.987 11.67 22.509 18.683 33.92a3.982 3.982 0 002.427 1.776l11.221 2.811c3.212.805 5.799-2.75 4.028-5.548L234.4 57.572a4 4 0 00-3.38-1.861h-11.164a4 4 0 00-4 4v40.47a4.04 4.04 0 003.239 3.949c2.934.601 5.905 1.239 8.796 1.796.914.153 1.828.458 2.742.611" fill="url(#prefix__paint12_linear)"/><path d="M345.492 126.989a79.855 79.855 0 012.83-.137c2.097-.074 3.72-1.793 3.72-3.892V59.71a4 4 0 00-4-4H340.2a4 4 0 00-4 4v63.432c0 2.209 1.791 3.992 3.999 3.939 1.776-.042 3.559-.092 5.293-.092z" fill="url(#prefix__paint13_linear)"/><path d="M385.86 122.563c.271-.03.536-.06.797-.091 1.861-.224 3.089-1.85 3.025-3.723-.008-.255-.013-.51-.013-.765 0-27.168 13.1-51.437 39.454-51.437 25.047 0 37.848 20.13 39.186 43.092.119 2.049 1.676 3.746 3.688 4.154 4.315.876 8.235 2.41 11.705 3.361.755.206 1.48-.372 1.48-1.154 0-36.632-21.784-62.426-55.45-62.426-32.904 0-57.277 25.642-57.277 64.868 0 1.171.053 2.342.097 3.514.047 1.276 1.19 2.163 2.467 2.135.114-.002.235-.011.347-.03 3.595-.596 7.045-1.047 10.494-1.498z" fill="url(#prefix__paint14_linear)"/><path d="M586.901 55.71h-7.843a4 4 0 00-4 4V175.19a4 4 0 004 4h7.843a4 4 0 004-4V59.711a4 4 0 00-4-4z" fill="url(#prefix__paint15_linear)"/><path d="M634.621 125.189a4 4 0 014-4h39.985a4 4 0 004-4v-5.126a4 4 0 00-4-4h-39.985a4 4 0 01-4-4V72.99a4 4 0 014-4h42.727a4 4 0 004-4v-5.28a4 4 0 00-4-4h-58.57a4 4 0 00-4 4v115.327a4 4 0 004 4h61.312a4 4 0 004-4v-5.279a4 4 0 00-4-4h-45.469a4 4 0 01-4-4v-36.569z" fill="url(#prefix__paint16_linear)"/><path d="M724.65 125.189a4 4 0 014-4h39.832a4 4 0 004-4v-5.126a4 4 0 00-4-4H728.65a4 4 0 01-4-4V72.99a4 4 0 014-4h42.574a4 4 0 004-4v-5.28a4 4 0 00-4-4h-58.569a4 4 0 00-4 4v115.327a4 4 0 004 4h61.311a4 4 0 004-4v-5.279a4 4 0 00-4-4H728.65a4 4 0 01-4-4v-36.569z" fill="url(#prefix__paint17_linear)"/><path d="M818.526 165.758a4 4 0 01-4-4v-36.569a4 4 0 014-4h39.833a4 4 0 004-4v-5.126a4 4 0 00-4-4h-39.833a4 4 0 01-4-4V72.99a4 4 0 014-4h42.575a4 4 0 004-4v-5.28a4 4 0 00-4-4h-58.417a4 4 0 00-4 4v115.327a4 4 0 004 4h61.159a4 4 0 004-4v-5.279a4 4 0 00-4-4h-45.317z" fill="url(#prefix__paint18_linear)"/><defs><linearGradient id="prefix__paint0_linear" x1="-265" y1="-343.5" x2="1173.5" y2="672.5" gradientUnits="userSpaceOnUse"><stop stop-color="#F25C78"/><stop offset=".365" stop-color="#F25C78"/><stop offset=".365" stop-color="#F25C78" stop-opacity="0"/><stop offset=".625" stop-color="#F25C78" stop-opacity="0"/><stop offset=".625" stop-color="#0F6CA6"/></linearGradient><linearGradient id="prefix__paint1_linear" x1="245" y1="189" x2="611.5" y2="232" gradientUnits="userSpaceOnUse"><stop stop-color="#0F6CA6"/><stop offset="1" stop-color="#F25C78"/></linearGradient><linearGradient id="prefix__paint2_linear" x1="54.231" y1="118.9" x2="54.231" y2="175.984" gradientUnits="userSpaceOnUse"><stop stop-color="#F28888"/><stop offset="1" stop-color="#FF599B"/><stop offset="1" stop-color="#F25C78"/></linearGradient><linearGradient id="prefix__paint3_linear" x1="138.852" y1="116" x2="138.852" y2="178.121" gradientUnits="userSpaceOnUse"><stop stop-color="#F28888"/><stop offset="1" stop-color="#FF599B"/><stop offset="1" stop-color="#F25C78"/></linearGradient><linearGradient id="prefix__paint4_linear" x1="288.367" y1="137.521" x2="288.367" y2="175.984" gradientUnits="userSpaceOnUse"><stop stop-color="#F28888"/><stop offset="1" stop-color="#FF599B"/><stop offset="1" stop-color="#F25C78"/></linearGradient><linearGradient id="prefix__paint5_linear" x1="223.321" y1="124.547" x2="223.321" y2="175.984" gradientUnits="userSpaceOnUse"><stop stop-color="#F28888"/><stop offset="1" stop-color="#FF599B"/><stop offset="1" stop-color="#F25C78"/></linearGradient><linearGradient id="prefix__paint6_linear" x1="344.121" y1="143.932" x2="344.121" y2="175.984" gradientUnits="userSpaceOnUse"><stop stop-color="#F28888"/><stop offset="1" stop-color="#FF599B"/><stop offset="1" stop-color="#F25C78"/></linearGradient><linearGradient id="prefix__paint7_linear" x1="430.265" y1="124.351" x2="430.265" y2="177.968" gradientUnits="userSpaceOnUse"><stop stop-color="#F28888"/><stop offset="1" stop-color="#FF599B"/><stop offset="1" stop-color="#F25C78"/></linearGradient><linearGradient id="prefix__paint8_linear" x1="54.231" y1="55.711" x2="54.231" y2="113.711" gradientUnits="userSpaceOnUse"><stop stop-color="#0F6CA6"/><stop offset="1" stop-color="#055BA6"/></linearGradient><linearGradient id="prefix__paint9_linear" x1="138.547" y1="53.726" x2="138.547" y2="106.384" gradientUnits="userSpaceOnUse"><stop stop-color="#0F6CA6"/><stop offset="1" stop-color="#055BA6"/></linearGradient><linearGradient id="prefix__paint10_linear" x1="187.562" y1="121.189" x2="187.562" y2="121.257" gradientUnits="userSpaceOnUse"><stop stop-color="#0F6CA6"/><stop offset="1" stop-color="#055BA6"/></linearGradient><linearGradient id="prefix__paint11_linear" x1="301.011" y1="55.711" x2="301.011" y2="124.547" gradientUnits="userSpaceOnUse"><stop stop-color="#0F6CA6"/><stop offset="1" stop-color="#055BA6"/></linearGradient><linearGradient id="prefix__paint12_linear" x1="243.809" y1="55.711" x2="243.809" y2="116.611" gradientUnits="userSpaceOnUse"><stop stop-color="#0F6CA6"/><stop offset="1" stop-color="#055BA6"/></linearGradient><linearGradient id="prefix__paint13_linear" x1="344.121" y1="55.711" x2="344.121" y2="127.142" gradientUnits="userSpaceOnUse"><stop stop-color="#0F6CA6"/><stop offset="1" stop-color="#055BA6"/></linearGradient><linearGradient id="prefix__paint14_linear" x1="428.818" y1="53.574" x2="428.818" y2="124.395" gradientUnits="userSpaceOnUse"><stop stop-color="#0F6CA6"/><stop offset="1" stop-color="#055BA6"/></linearGradient><linearGradient id="prefix__paint15_linear" x1="582.98" y1="55.711" x2="582.98" y2="179.189" gradientUnits="userSpaceOnUse"><stop stop-color="#002855" stop-opacity=".8"/><stop offset="1" stop-color="#002855" stop-opacity=".7"/></linearGradient><linearGradient id="prefix__paint16_linear" x1="653.434" y1="55.711" x2="653.434" y2="179.037" gradientUnits="userSpaceOnUse"><stop stop-color="#002855" stop-opacity=".8"/><stop offset="1" stop-color="#002855" stop-opacity=".7"/></linearGradient><linearGradient id="prefix__paint17_linear" x1="743.31" y1="55.711" x2="743.31" y2="179.037" gradientUnits="userSpaceOnUse"><stop stop-color="#002855" stop-opacity=".8"/><stop offset="1" stop-color="#002855" stop-opacity=".7"/></linearGradient><linearGradient id="prefix__paint18_linear" x1="833.263" y1="55.711" x2="833.263" y2="179.037" gradientUnits="userSpaceOnUse"><stop stop-color="#002855" stop-opacity=".8"/><stop offset="1" stop-color="#002855" stop-opacity=".7"/></linearGradient><filter id="prefix__filter0_d" x="237.243" y="199.069" width="447.428" height="32.145" filterUnits="userSpaceOnUse" color-interpolation-filters="sRGB"><feFlood flood-opacity="0" result="BackgroundImageFix"/><feColorMatrix in="SourceAlpha" values="0 0 0 0 0 0 0 0 0 0 0 0 0 0 0 0 0 0 127 0"/><feOffset dx="4" dy="4"/><feGaussianBlur stdDeviation="4"/><feColorMatrix values="0 0 0 0 0 0 0 0 0 0 0 0 0 0 0 0 0 0 0.12 0"/><feBlend in2="BackgroundImageFix" result="effect1_dropShadow"/><feBlend in="SourceGraphic" in2="effect1_dropShadow" result="shape"/></filter></defs></svg>