<svg width="150" height="38" fill="none"><path d="M16.644 20.008c-.101.024-.189.099-.189.203v6.717a1.13 1.13 0 002.258 0v-5.22c0-.961-.81-1.717-1.77-1.709l-.24.001c-.02 0-.04.004-.059.008zM36.716 19.848l-.066-.013a.443.443 0 00-.086-.008l-.174-.022-.717-.13a.38.38 0 00-.434.352c-.259 3.627-2.255 6.488-5.602 6.488-3.087-.02-5.022-2.576-5.479-5.715-.1-.688-.704-1.227-1.395-1.162-.637.06-1.112.603-1.036 1.238.541 4.515 3.605 7.485 7.8 7.485 4.09 0 7.51-2.672 8.073-7.743.035-.319-.183-.583-.493-.661l-.391-.109zM51.924 23.297c-.063-.02-.112.039-.107.105l.12 1.64a.028.028 0 01-.016.027.029.029 0 01-.039-.014 44.07 44.07 0 00-.732-1.476 1.042 1.042 0 00-.747-.536c-.871-.15-1.52.798-1.051 1.547l1.738 2.772a1.482 1.482 0 002.737-.787v-1.327c0-.982-.745-1.791-1.718-1.923a24.851 24.851 0 01-.16-.022.204.204 0 01-.025-.006zM41.732 21.021a.883.883 0 00-1.108.86v5.112a1.064 1.064 0 002.128 0v-4.658c0-.62-.42-1.164-1.02-1.314zM59.669 23.54c-1.053.075-1.89.946-1.89 2.001v1.387a1.13 1.13 0 002.258 0v-3.06c.001-.194-.176-.36-.368-.328zM77.723 20.794c-.618.077-1.192.582-1.32 1.191-.603 2.846-2.492 4.508-5.42 4.508-2.155 0-3.762-1.233-4.692-3.038-.287-.559-.9-.893-1.52-.784-.238.066-.477.109-.737.174-.288.072-.477.374-.366.649 1.212 3.004 3.818 4.845 7.14 4.845 3.822 0 7.078-1.97 7.93-6.361.132-.687-.322-1.271-1.015-1.184zM18.714 12.074a1.13 1.13 0 10-2.258 0v5.763c0 .708.617 1.25 1.314 1.124.535-.097.944-.569.944-1.112v-5.775zM29.68 12.509c2.676 0 4.386 1.832 5.13 4.158.051.16.196.293.364.293.326.022.63.044.956.087.303.044.63.087.933.13a.278.278 0 00.305-.34c-.905-3.717-3.673-6.174-7.58-6.174-3.648 0-6.556 2.205-7.663 5.799-.251.814.464 1.53 1.3 1.362.495-.1.905-.494 1.05-.978.74-2.49 2.475-4.337 5.205-4.337z" fill="#fff"/><path d="M36.585 20.265c-.002 0-.002-.004 0-.004.005.001.072.018 0 .004zM53.467 20.663c.181.064.36-.097.36-.29V12.01a1.064 1.064 0 00-2.128 0V18.805c.002.895.632 1.667 1.516 1.812l.186.03a.348.348 0 01.066.016zM42.579 13.746a.11.11 0 01.125.06 48.364 48.364 0 001.946 3.633 3.875 3.875 0 002.413 1.782l.25.063a.527.527 0 00.573-.791l-4.315-6.806a1.597 1.597 0 00-2.946.855v3.45c0 1.016.717 1.905 1.715 2.097.13.022.26.066.391.087M59.104 21.086c.526-.037.934-.451.934-.978v-8.034a1.13 1.13 0 10-2.258 0v7.709c0 .732.593 1.303 1.324 1.303zM64.859 20.456h.006c.329-.037.537-.32.537-.651 0-3.865 1.867-7.318 5.624-7.318 3.38 0 5.196 2.566 5.542 5.611.066.585.509 1.076 1.075 1.234.42.118.808.258 1.164.355.107.03.21-.053.21-.164 0-5.212-3.105-8.882-7.904-8.882-4.69 0-8.165 3.648-8.165 9.23 0 .166.008.332.014.498.006.182.17.309.351.305a.354.354 0 00.05-.004c.512-.085 1.004-.15 1.496-.214zM94.088 27.384v-15.31a1.13 1.13 0 10-2.259 0v15.31a1.13 1.13 0 002.259 0zM100.32 23.431c0-1.75 1.42-3.17 3.171-3.17h2.736a.934.934 0 000-1.867H103.1a2.78 2.78 0 010-5.56h3.507a.945.945 0 000-1.89h-4.545a4 4 0 00-4 4.001v9.546a4 4 0 004 4h4.936a.945.945 0 000-1.89h-3.507a3.17 3.17 0 01-3.171-3.17zM113.154 23.431a3.17 3.17 0 013.17-3.17h2.715a.934.934 0 000-1.867h-3.106a2.78 2.78 0 010-5.56h3.486a.945.945 0 000-1.89h-4.545a4 4 0 00-4 4.001v9.546a4 4 0 004 4h4.936a.945.945 0 000-1.89h-3.486a3.17 3.17 0 01-3.17-3.17zM129.136 26.602a3.17 3.17 0 010-6.34h2.715a.934.934 0 000-1.867h-3.106a2.78 2.78 0 010-5.56h3.486a.945.945 0 000-1.89h-4.523a4 4 0 00-4 4v9.546a4 4 0 004 4h4.914a.945.945 0 000-1.89h-3.486z" fill="#fff"/></svg>